# xmcd
#
# Track frame offsets:
#	150
#	17332
#	31366
#	53365
#	76970
#	96604
#	113947
#	126807
#	143547
#	144185
#	155621
#	170965
#	188269
#
# Disc length: 2698 seconds
#
# Revision: 1
# Processed by: cddbd v1.4PL0 Copyright (c) Steve Scherf et al.
# Submitted via: audiograbber 1.80.04
#
DISCID=9f0a880d
DTITLE=Dixie Chicks - FLY
DYEAR=1900
DGENRE=
TTITLE0=Ready To Run
TTITLE1=If I Fall You´re Going Down With Me
TTITLE2=Cowboy Take Me Away
TTITLE3=Cold Day In July
TTITLE4=Goodbye Earl
TTITLE5=Hello Mr. Heartache
TTITLE6=Don´t Waste Your Heart
TTITLE7=Sin Wagon
TTITLE8=Without You
TTITLE9=Some Days You Gotta Dance
TTITLE10=Hole In My Head
TTITLE11=Heartbrake Town
TTITLE12=Let Him Fly
EXTD=
EXTT0=
EXTT1=
EXTT2=
EXTT3=
EXTT4=
EXTT5=
EXTT6=
EXTT7=
EXTT8=
EXTT9=
EXTT10=
EXTT11=
EXTT12=
PLAYORDER=
